<?xml version="1.0" encoding="UTF-8"?>
<svg id="Layer_1" data-name="Layer 1" xmlns="http://www.w3.org/2000/svg" viewBox="0 0 195.32 63.22">
  <defs>
    <style>
      .cls-1 {
        fill: #d23a27;
      }

      .cls-2 {
        fill: #dbdbdb;
      }
    </style>
  </defs>
  <g>
    <path class="cls-2" d="M42.48,1.03c.63,0,1.05.45,1.05.97v42.75c0,.45-.42.91-1.05.91h-12.13c-.49,0-1.12-.32-1.47-.84l-12.2-20.12v20.05c0,.45-.42.91-1.05.91H3.22c-.56,0-.98-.45-.98-.91V2c0-.52.42-.97.98-.97h12.13c.63,0,1.33.32,1.61.84l12.13,20.12V2c0-.52.49-.97.98-.97h12.41Z"/>
    <path class="cls-2" d="M72.77,46.57c-14.93,0-24.89-9.31-24.89-23.22S57.83,0,72.77,0s24.89,9.31,24.89,23.35-9.96,23.22-24.89,23.22ZM72.77,13.07c-5.75,0-9.61,4.14-9.61,10.28s3.86,10.28,9.61,10.28,9.61-4.14,9.61-10.28-3.86-10.28-9.61-10.28Z"/>
    <path class="cls-2" d="M115.46,1.03c.63,0,1.05.45,1.05.97v42.75c0,.45-.42.91-1.05.91h-12.41c-.49,0-.98-.45-.98-.91V2c0-.52.49-.97.98-.97,0,0,12.41,0,12.41,0Z"/>
    <path class="cls-2" d="M125.42,32.08c.21-.65.7-.84,1.26-.52,3.22,1.68,7.08,2.91,9.75,3.1,2.24,0,3.72-.97,3.72-2.46,0-3.82-19.7-3.62-19.7-17.72,0-8.66,7.07-14.42,17.73-14.42,4.98,0,11.29,1.88,15.71,4.66.56.32.77.84.56,1.16l-4.42,9.12c-.21.65-.7.84-1.26.52-3.44-1.81-7.43-3.17-9.89-3.36-2.17,0-3.58.91-3.58,2.33,0,3.82,19.84,3.56,19.84,17.79,0,8.6-7.22,14.36-18.02,14.36-5.89,0-12.06-1.68-15.57-4.27-.56-.39-.77-.84-.56-1.16l4.42-9.12h.01Z"/>
    <path class="cls-2" d="M192.65,34.02c.56,0,1.05.39,1.05.84v9.9c0,.45-.49.91-1.05.91h-32.6c-.49,0-.98-.52-1.12-.97V1.94c0-.58.35-.91.98-.91h31.9c.63,0,1.12.45,1.12.91v9.77c0,.58-.49.97-1.12.97h-18.3v5.11h14.86c.63,0,.98.45.91.84l-.98,9.06c-.07.39-.56.84-1.19.84h-13.6v5.5h19.14Z"/>
  </g>
  <g>
    <path class="cls-2" d="M2.91,55.11H0v-1.41h7.52v1.41h-2.91v7.97h-1.71v-7.97h.01Z"/>
    <path class="cls-2" d="M8.66,53.2h1.6v3.19c0,.34-.03,1.15-.04,1.54h.01c.37-1.28,1.28-2.01,2.94-2.01,1.78,0,2.88,1.01,2.88,2.75v4.4h-1.6v-4.05c0-1.11-.63-1.74-1.9-1.74-1.41,0-2.29.87-2.29,2.45v3.33h-1.6v-9.88.02Z"/>
    <path class="cls-2" d="M24.23,59.87h-5.27c.09,1.35.84,2.08,2.04,2.08,1.03,0,1.72-.46,1.8-1.28h1.44c-.06,1.57-1.34,2.52-3.26,2.52-2.22,0-3.62-1.37-3.62-3.58s1.4-3.69,3.62-3.69c2,0,3.26,1.18,3.26,3.38v.57h-.01ZM22.79,58.8c0-1.05-.66-1.64-1.81-1.64s-1.8.57-1.98,1.74h3.79v-.1Z"/>
  </g>
  <g>
    <path class="cls-1" d="M28.72,59.87h1.54c0,1.2.57,2.02,2.37,2.02,1.91,0,2.39-.71,2.39-1.48,0-.51-.21-.81-.66-.97-.47-.19-1.48-.31-2.29-.43-.94-.13-1.94-.34-2.45-.67-.57-.36-.93-1-.93-1.88,0-1.71,1.47-2.91,3.92-2.91,2.78,0,3.79,1.23,3.79,3.36h-1.54c0-1.38-.76-2.04-2.22-2.04s-2.25.58-2.25,1.44c0,.53.19.84.56,1.01.41.2,1.47.37,2.28.48.98.16,1.9.31,2.48.63.64.33,1.01.98,1.01,1.85,0,1.51-.88,2.92-4.08,2.92s-3.92-1.64-3.92-3.35v.02Z"/>
    <path class="cls-1" d="M37.91,61.05c0-1.07.76-1.91,2.64-1.91h2.61v-.5c0-1.05-.61-1.52-1.85-1.52-1.08,0-1.7.41-1.7,1.2,0,.04,0,.16,0,.27h-1.47c0-.1-.03-.29-.03-.41,0-1.41,1.23-2.25,3.23-2.25,2.14,0,3.39,1.01,3.39,2.86v4.29h-1.6c.03-.34.07-.98.07-1.55h0c-.23,1.04-1.07,1.67-2.62,1.67s-2.68-.77-2.68-2.14h0ZM43.15,60.24v-.13h-2.47c-.91,0-1.31.31-1.31.87,0,.64.57,1.01,1.54,1.01,1.38,0,2.24-.67,2.24-1.75Z"/>
    <path class="cls-1" d="M46.27,56.04h1.6l-.06,1.88h0c.38-1.27,1.3-2,2.94-2,1.78,0,2.88,1.01,2.88,2.75v4.4h-1.6v-4.05c0-1.11-.63-1.74-1.9-1.74-1.4,0-2.28.84-2.28,2.38v3.41h-1.6v-7.04h.01Z"/>
    <path class="cls-1" d="M58.55,53.7h6.27v1.43h-4.56v2.85h3.85v1.2h-3.85v3.91h-1.71v-9.38h0Z"/>
    <path class="cls-1" d="M65.97,56.04h1.6l-.06,2.02h.01c.33-1.27,1.05-2.14,2.51-2.14s2.37,1,2.37,2.75c0,.44-.04,1.01-.07,1.31h-1.45c.03-.27.06-.63.06-.96,0-1.18-.46-1.74-1.4-1.74-1.21,0-1.97,1.03-1.97,2.71v3.08h-1.6v-7.04h0Z"/>
    <path class="cls-1" d="M73.56,61.05c0-1.07.76-1.91,2.64-1.91h2.61v-.5c0-1.05-.61-1.52-1.85-1.52-1.08,0-1.7.41-1.7,1.2,0,.04,0,.16.01.27h-1.47c-.01-.1-.03-.29-.03-.41,0-1.41,1.23-2.25,3.23-2.25,2.14,0,3.39,1.01,3.39,2.86v4.29h-1.6c.03-.34.07-.98.07-1.55h-.01c-.23,1.04-1.07,1.67-2.62,1.67s-2.68-.77-2.68-2.14h0ZM78.81,60.24v-.13h-2.47c-.91,0-1.31.31-1.31.87,0,.64.57,1.01,1.54,1.01,1.38,0,2.24-.67,2.24-1.75Z"/>
    <path class="cls-1" d="M81.93,56.04h1.6l-.06,1.88h.01c.38-1.27,1.3-2,2.94-2,1.78,0,2.88,1.01,2.88,2.75v4.4h-1.6v-4.05c0-1.11-.63-1.74-1.9-1.74-1.4,0-2.28.84-2.28,2.38v3.41h-1.6v-7.04h0Z"/>
    <path class="cls-1" d="M90.6,59.55c0-2.25,1.41-3.63,3.53-3.63,1.97,0,3.25,1.14,3.25,3.01h-1.44c-.01-1.05-.7-1.7-1.77-1.7-1.23,0-1.98.87-1.98,2.32s.74,2.32,1.92,2.32,1.82-.63,1.84-1.67h1.44c0,1.88-1.34,2.98-3.35,2.98s-3.45-1.38-3.45-3.63h.01Z"/>
    <path class="cls-1" d="M98.86,53.64h1.64v1.57h-1.64v-1.57ZM98.88,56.04h1.6v7.04h-1.6v-7.04Z"/>
    <path class="cls-1" d="M101.93,60.72h1.44c0,.81.47,1.31,1.84,1.31s1.87-.4,1.87-1.04c0-.27-.1-.51-.47-.64-.34-.13-1.01-.2-1.8-.27-1.1-.1-1.84-.24-2.27-.56-.38-.29-.61-.8-.61-1.34,0-1.41,1.37-2.27,3.28-2.27,2.19,0,3.16.91,3.16,2.51h-1.44c-.01-.91-.51-1.35-1.68-1.35s-1.74.4-1.74,1c0,.3.07.58.48.73.34.11,1.01.19,1.87.27,1,.1,1.57.2,2.07.48.47.26.74.8.74,1.37,0,1.43-1.2,2.27-3.45,2.27-2.42,0-3.29-1.08-3.29-2.47Z"/>
    <path class="cls-1" d="M109.83,59.55c0-2.25,1.41-3.63,3.53-3.63,1.97,0,3.25,1.14,3.25,3.01h-1.44c-.01-1.05-.7-1.7-1.77-1.7-1.23,0-1.98.87-1.98,2.32s.74,2.32,1.92,2.32,1.82-.63,1.84-1.67h1.44c0,1.88-1.34,2.98-3.35,2.98s-3.45-1.38-3.45-3.63h.01Z"/>
    <path class="cls-1" d="M117.84,59.57c0-2.25,1.44-3.65,3.68-3.65s3.69,1.4,3.69,3.65-1.44,3.62-3.69,3.62-3.68-1.38-3.68-3.62ZM123.61,59.57c0-1.44-.8-2.34-2.1-2.34s-2.08.9-2.08,2.34.78,2.31,2.08,2.31,2.1-.88,2.1-2.31Z"/>
  </g>
  <g>
    <path class="cls-2" d="M129.63,58.4c0-2.99,2-4.85,4.82-4.85,2.47,0,4.22,1.47,4.22,3.63,0,.1,0,.29-.03.46h-1.51c0-.13,0-.24,0-.31,0-1.44-1.12-2.35-2.64-2.35-1.82,0-3.14,1.33-3.14,3.42s1.37,3.39,3.14,3.39c1.57,0,2.67-.9,2.67-2.25v-.23h1.52v.33c0,2.12-1.77,3.58-4.25,3.58-2.79,0-4.82-1.84-4.82-4.82h0Z"/>
    <path class="cls-2" d="M139.91,59.57c0-2.25,1.44-3.65,3.68-3.65s3.69,1.4,3.69,3.65-1.44,3.62-3.69,3.62-3.68-1.38-3.68-3.62ZM145.68,59.57c0-1.44-.8-2.34-2.1-2.34s-2.08.9-2.08,2.34.78,2.31,2.08,2.31,2.1-.88,2.1-2.31Z"/>
    <path class="cls-2" d="M148.68,53.2h1.6v9.88h-1.6v-9.88Z"/>
    <path class="cls-2" d="M151.97,53.2h1.6v9.88h-1.6v-9.88Z"/>
    <path class="cls-2" d="M161.89,59.87h-5.27c.09,1.35.84,2.08,2.04,2.08,1.03,0,1.72-.46,1.8-1.28h1.44c-.06,1.57-1.34,2.52-3.26,2.52-2.22,0-3.62-1.37-3.62-3.58s1.4-3.69,3.62-3.69c2,0,3.26,1.18,3.26,3.38v.57h0ZM160.45,58.8c0-1.05-.66-1.64-1.81-1.64s-1.79.57-1.98,1.74h3.79v-.1Z"/>
    <path class="cls-2" d="M163.05,59.55c0-2.25,1.41-3.63,3.53-3.63,1.97,0,3.25,1.14,3.25,3.01h-1.44c0-1.05-.7-1.7-1.77-1.7-1.23,0-1.98.87-1.98,2.32s.74,2.32,1.92,2.32,1.82-.63,1.84-1.67h1.44c0,1.88-1.34,2.98-3.35,2.98s-3.45-1.38-3.45-3.63h.01Z"/>
    <path class="cls-2" d="M171.63,60.57v-3.24h-1.11v-1.3h.9c.27,0,.37-.14.41-.54l.07-1.05h1.33v1.6h2.42v1.3h-2.42v3.15c0,.91.34,1.37,1.31,1.37.4,0,.86-.07,1.05-.13v1.27c-.21.07-.7.17-1.28.17-1.92,0-2.68-1.04-2.68-2.59h0Z"/>
    <path class="cls-2" d="M176.96,53.64h1.64v1.57h-1.64v-1.57ZM176.97,56.04h1.6v7.04h-1.6v-7.04Z"/>
    <path class="cls-2" d="M179.74,56.04h1.87l2.21,5.54h.03l2.24-5.54h1.67l-3.05,7.04h-1.9l-3.06-7.04h-.01Z"/>
    <path class="cls-2" d="M195.31,59.87h-5.27c.09,1.35.84,2.08,2.04,2.08,1.03,0,1.72-.46,1.8-1.28h1.44c-.06,1.57-1.34,2.52-3.26,2.52-2.22,0-3.62-1.37-3.62-3.58s1.4-3.69,3.62-3.69c2,0,3.26,1.18,3.26,3.38v.57h0ZM193.87,58.8c0-1.05-.66-1.64-1.81-1.64s-1.79.57-1.98,1.74h3.79v-.1Z"/>
  </g>
</svg>